<?xml version="1.0" encoding="UTF-8"?>
<svg id="Layer_2" data-name="Layer 2" xmlns="http://www.w3.org/2000/svg" viewBox="0 0 1216.49 500.61">
  <defs>
    <style>
      .cls-1 {
        fill: #244a73;
      }

      .cls-2 {
        fill: #1f4975;
      }

      .cls-3 {
        fill: #7bb0d4;
      }

      .cls-4 {
        fill: #3390cf;
      }

      .cls-5 {
        fill: #51c2a0;
      }

      .cls-6 {
        fill: #3384b9;
      }

      .cls-7 {
        fill: #1a4a76;
      }

      .cls-8 {
        fill: #216c89;
      }

      .cls-9 {
        fill: #3eafae;
      }

      .cls-10 {
        fill: #9cdcf7;
      }

      .cls-11 {
        fill: #1a4877;
      }

      .cls-12 {
        fill: #6ba6ce;
      }

      .cls-13 {
        fill: #76beeb;
      }

      .cls-14 {
        fill: #65cac4;
      }
    </style>
  </defs>
  <g id="Layer_1-2">
    <g>
      <path class="cls-2" d="M453.2,335.14c-1.39.14-1.89,1.08-2.49,2.51-7.17,17.16-16.34,32.64-27.46,47.44-2.71,11.75-5.99,22.23-11.23,33.01,2.57-1.24,3.79-3.13,5.16-4.74l11.23-13.14c30.92-36.17,48.59-81.44,53.32-129.06l14.1-8.82c-4.67,101.28-69.6,188.41-164.67,223.5-33.08,12.21-67.2,17.05-102.67,13.74-108.29-10.1-199.58-92.14-221.08-199.41l14.06.94c5.9,20.48,11.22,40.86,22.27,59.19,11.17,18.52,27.63,35.12,47.67,45.43-27.12-31.36-46.53-64.7-55.49-104.74l14.22-.17c20.8,85.34,93.58,149.15,181.51,157.47,56.38,5.33,111.54-14.71,153.79-52.17,33.71-29.89,56-70.19,65.25-114.1l15.51-9.97c-2.27,15.96-5.82,30.44-11.16,45l-1.85,8.07ZM361.38,441.03l-1.07,1.18c-.17.1-.48.07-.64-.33-77.01,45.04-167.65,40.3-239.98-12.85l-34.12-12.08c7.91,9.45,17.16,16.82,26.58,23.49,7.84,5.77,15.91,11.03,24.35,15.77,69.96,39.35,148.37,41.06,219.98,3.05,16.59-13.46,32.57-27.23,43.41-46.66-13.59,10.08-25.1,20.3-38.51,28.43ZM85.11,416.16l-.5.5.5.5.5-.5-.5-.5Z"/>
      <path class="cls-7" d="M379.29,262.14c-.14-.45.14-1.76-.88-1.76l-29.24-.12c.71-3.08,4.29-4.19,5.84-7.51,1.41-3.04-.27-10.57-3.01-12.43-3.65-1.87-8.71-.96-12.51-.61-2.43.22-3.95,3.86-4.19,5.66l-41.66.08.12,8.85,42.1.06c1.52,1.93,2.16,3.99,2.57,6.01l-45.82.42c-4.41,11.21-12.76,20.35-23.96,23.4-18.55,5.05-36.29-4.09-43.92-21.12-1.19-2.66-8.62-1.32-8.89,1.51-.8,8.58-1.04,16.95.2,25.32,1.54,10.35,9.9,18.7,20.4,18.72l51.13.06c0,3.24-7.58-1.11-10.9,7.72l-40.21-.09c-16.54-.04-28.58-14.1-28.69-30.68l-.13-18.29c-.03-3.81,1.24-7.59,3.54-9.86,2.81-2.78,7.02-3.04,11.25-3.01.48-3.14.49-5.98.02-8.89-11.47-1.76-21.79,6.2-23.2,17.69l-.07,21.66c-.07,22.08,15.83,40.21,38.33,40.24l38.63.05c1.31,2.03,3.19,3.65,3.53,6.1l-47.04-.02c-.77,0-1.13.73-1.02.69-21.22-1.44-37.96-19.2-39.7-40.6l-.05-28.94c1.29-14.77,14.1-25.6,28.54-24.47,3.58.28,4.58-1.28,5.81-3.97,6.08-13.34,20.05-21.09,34.45-20.1s26.46,10.08,31.28,24.05l49.52.13,37.68-.34c4.55-13.62,16.01-22.08,29.67-23.64,16.46-1.88,31.4,7.51,36.78,23.25,3.92.88,7.74.69,11.51.22l.17-14.65,40.5,26.79-40.33,26.4-.28-13.83c-3.86-.56-7.65-.76-11.54.16-7.39,20.19-27.54,27.29-46.86,20.42-7.62-2.71-16.89-12.12-19.47-20.69ZM247.33,270.9c9.64,4.86,21.35,2.62,28.52-5.45s8.01-19.95,2.04-28.94c-5.52-8.32-15.66-12.32-25.38-9.99-9.72,2.32-16.95,10.46-18.11,20.38s4.01,19.51,12.93,24ZM407.41,272.72c8.25,1.79,16.82-.93,22.53-7.14,5.7-6.21,7.68-14.99,5.18-23.04-3.41-11.02-14.27-17.99-25.72-16.51s-20.17,10.98-20.66,22.51c-.49,11.53,7.39,21.74,18.67,24.19ZM465.21,254.38l.36,7,17.97-11.69-18.03-11.61-.28,7.33-17.57.09.81,8.75,16.75.13ZM377.22,254.39l-.06-8.94-18.15.24c1.49,2.18,2.45,3.54,2.13,4.92-.29,1.26-1.07,2.17-1.93,3.65l18,.12Z"/>
      <path class="cls-7" d="M246.59,85.68c-2.66,2.05-6.27.41-7.98,7.15l-37.08.07c-27.43.05-48.66,25.61-48.3,48.66l.39,25.25c1.8-3.59,6.07-5.52,7.43-8.68,1.71-4.25.48-9.92.66-14.61.5-13.13,5.67-24.73,15.67-33.23,7.76-6.6,17.86-8.89,28.16-8.84l31.53.17c1.21,2.04,3.22,3.61,3.48,5.84l-41.96.44c-16,1.34-27.88,15.16-30.59,30.99l-.44,16.73c-.02.89,1.59,1.21,2.02.9.18-.13.91-.21,1.14.52,6.11-3.54,13-4.53,20.32-5.03,12.98-.89,17.02,1.4,18.86-5.47,1.45-5.43,7.2-12.62,13.61-12.67l63.98-.53c9.89-.08,19.88,5.55,19.82,16.2l-.14,27.21c-.04,7.27-8.49,15.44-15.63,15.46l-66.87.22c-1.21,0-3.36-2.13-4.2,0-7.25-2.84-12.14-9.42-12.95-17.92-6.64-.11-13.04-.78-19.44.58-11.2,2.39-17.56,12.82-18.44,23.36-.49.27-.93.76-.92,1.37,0,.42.29.72.69.68l.02,19.86c-.41-.09-1.05-.06-1.33.17-.34.27-.64,1.03-.63,1.82l.09,16.07c-4.3,1.96.15,7.7-5.63,7.21l-.38-20.74c6.73-1.99,5.97-8.96,6.2-16.45.12-4.07-1.44-6.56-5.61-7.07-.31-17.86,11.7-34.13,29.67-34.44l15.56-.27.06-8.51-13.5-.14c-24.48-.26-40.11,19.6-40.98,43.52-5.3,2.03-6.53,7.52-6.44,12.91.07,4.58,1.24,8.67,5.77,10.02l.59,20.96-23.72.2-3.58-6.25c-3.2.87-5.07-.16-7.09-.91,8.76-.64,17.43-.68,26.07-.35.55.63,1.34-.06.87-.67l.09-93.85c.03-30.59,24.28-58.12,55.04-58.13l46.07.23ZM225.59,181.35l63.89.36c4.63.03,7.53-4.83,7.59-8.68l.18-10.09c.06-3.52.63-6.86-.45-10.2-.14-.44-.44-.92-.34-1.61.45-3.18-2.31-7.22-6.21-7.23l-62.7-.1c-4.98,0-8.23,3.88-8.18,8.62l.25,21.09c.03,2.84,2.3,7.8,5.97,7.82Z"/>
      <path class="cls-7" d="M108.71,238.41c-1.6.52-3.24,2.21-6.18,1.13l-1.53,5.91-16.31.07-.02,8.79,15.47.09,1.37,5.3c-1.49-.16-2.81.55-5.13.24-4.04-.53-9.47-.93-11.8,2.08-.69.9-.93,2.45-1.22,3.24-4.3,3.81-4.27,8.78-1.53,14.25-.25.49-.22,1.25-.2,1.8l-1.43.17c-.71.08-.92.84-.58,1.33.46.66,1.24.81,1.96.7l.14.89-2.97,3.06c-2.09-.31-4.1.75-6.24,1.87l-62.12-.03c-.09,0-.33.15-.66.07l-6.02-6.28c-1.9-1.89-2.1-5.81-2.09-8.71l.29-52.96c.03-4.77,6.16-10.64,10.66-10.69l60.04-.7c6.67-.08,12.06,7.37,12.19,14.21l.27,13.64,23.62.51ZM72.63,278.92l-.04-57.98-60.67.04.04,57.98,60.67-.04Z"/>
      <path class="cls-2" d="M334.45,308.98l1.08.17c18.53,3.17,32.88,17.91,35.54,37.3,3.73,24.1-13.53,49.07-38.64,49.25l-75.95.55c-.23-4.3,8.96.79,10.1-7.54l64.9-.53c18.71-.15,32.2-17.76,32.22-35.35.02-18.42-13.42-34.58-32.29-36.23l-23.9-.15c-4.69-10.12-10.2-4.04-11.14-7.84l38.08.36Z"/>
      <path class="cls-7" d="M336.83,94.33c14.72,9.09,24.62,24.79,26.81,42.05.06.5.24.93.51,1.36l.17,13.74-1.09,1.48c-.98,1.32-2.79-4.16-6.41-3.03,1.88-27.67-17.21-53.9-45.71-56.77l-35.65-.48c1.39,2.06,2.87,2.74,5.02,4.29l-3.99,4.23,33.07.53c10.55.17,20.94,5.94,27.83,13.68,8.69,9.77,11.29,21.95,10.92,34.23-3.14-.02-3.11,3.28-7.06,5.93l-.68-13.04c1.17-.05.89-1.29-.1-1.04-1.5-15.67-12.35-29.29-28-31.84-.11-1.07-1.17-.96-1.63-.63-.22-.09-.67-.23-.46-1.03l-44.26-.54c3.97-3.89,5.36-10.45,2.15-15.65-1.11-1.81-2.06-3.29-1.97-5.17l43.08.17c2.89.01,6.13.36,8.87,1.18l10.79,3.23c2.65.79,4.73,3.75,7.8,3.12Z"/>
      <path class="cls-7" d="M309.2,325.17l19.21.03c15.06.03,26.01,11.43,26.6,26.15.65,16.35-11.56,28.6-27.84,28.55l-59.89-.16c-.35-2.75-3.44-6.22-6.73-6.28l-12.06-.24v-.99s15.99-.15,15.99-.15c-.23.11.31,1.5,1.14,1.48l66.07-1.53c10.19-1.58,15.69-12.02,15.47-20.16-.26-9.49-6.9-18.6-16.72-18.76l-33.98-.57c.64-1.64,3.72-1.02,5.17-2.13,2.57-1.97,4.33-5.26,7.57-5.26Z"/>
      <path class="cls-8" d="M262.4,85.54c1.43.98,2.16,1.09,3.89,1.1-.09,1.88.85,3.36,1.97,5.17,3.21,5.2,1.81,11.76-2.15,15.65-1.39-.02-1.71.66-2.67,1.27l-15.26,9.66-.86-8.71-4.86-.93c.14-.5-.15-.88-.55-1-.46-.14-.99-.29-1.37-.29-.26-2.23-2.27-3.79-3.48-5.84h7.51c2,0,3.19-.74,3.39-2.26,1.46,2.15,3.87,3.78,6.25,3.75,3.19-.04,5.47-2.47,5.88-5.27.43-2.96-1.28-5.09-3.75-6.44-2.92-1.59-5.21,1.72-7.53,1.67l-10.19-.24c1.71-6.74,5.32-5.1,7.98-7.15,3.05-2.36.91-4.87,2.14-9.53l13.68,9.39Z"/>
      <path class="cls-8" d="M348.3,149.65c-.07,2.35-.64,5.09,1.28,7.12-2.46,1.64-3.4,6.14-1.58,8.59,2.04,2.75,6.59,3.26,9.16.48,2.26-2.46,1.46-6.52-.8-9.19l.46-6.71c3.62-1.13,5.44,4.35,6.41,3.03l1.09-1.48c.02,1.46-.56,3.07.26,5.14l8.63.55-9.08,13.88c-1.93,2.96-5.68,6.13-9.7,6.29-5.23.21-9.77-2.65-12.72-5.94l-1.34.1-.02-1.21-2.96-11.2c1.01-.23,2.62-.52,3.22-1.12.26-.26-1.22-.23-1.54-.46l-.93-.75c1.34-.04,2.11-.53,3.09-1.19,3.96-2.65,3.92-5.94,7.06-5.93Z"/>
      <path class="cls-8" d="M296.37,308.62c.94,3.8,6.45-2.27,11.14,7.84,1.42,3.06,3.6,5.12,1.69,8.71-3.24,0-5,3.29-7.57,5.26-1.44,1.11-4.53.49-5.17,2.13h-10.02c-1.51-2.04-4.5-1.26-6.78-1.26-.34-2.45-2.21-4.07-3.53-6.1l3.08-.03,7.83.31c3.11.12,5.81,2.21,8.05.69,3.33-2.27,3.45-6.4,1.77-8.83-2.26-3.28-6.06-2.38-9.32-1.21l-8.52.45-2.35-.19c3.31-8.83,10.9-4.48,10.9-7.72l8.79-.04Z"/>
      <path class="cls-3" d="M453.2,335.14c-6.39,22.06-15.98,43.61-28.03,63.3l-8.24,13.46c-.4.59-.57,1.21.25,1.47-1.37,1.61-2.59,3.5-5.16,4.74,5.24-10.78,8.53-21.26,11.23-33.01,11.12-14.8,20.29-30.28,27.46-47.44.6-1.43,1.1-2.37,2.49-2.51Z"/>
      <path class="cls-8" d="M118.44,238.45c2.03.75,3.89,1.78,7.09.91l3.58,6.25c1.83,3.19,2.73,5.96.38,8.91-2.42.02-4.84,2.54-5.05,5.22l-7.9.68c-1.21.1-2.09.36-1.95,1.49l-5.18-.16c-.03-.69-.63-1.24-1.84-1.38l-6.08-.66-1.37-5.3,8.3-.1c3.35-.04,6.19,2.6,8.73.82,3.25-2.27,3.43-6.29,1.73-8.68-2.3-3.24-6.06-2.42-9.3-1.27-2.48.88-5.88.27-8.6.28l1.53-5.91c2.94,1.07,4.58-.61,6.18-1.13,2.78-.9,7.02-.96,9.73.04Z"/>
      <path class="cls-8" d="M248.5,373.23l12.06.24c3.29.06,6.38,3.53,6.73,6.28l-6.02.4c-3.09-1.43-6.87-3.07-10.11-.27-2.81,2.43-2.49,6.47.18,8.85,2.5,2.23,6.37,1.59,9.17-.58l6.06.58c-1.14,8.33-10.34,3.24-10.1,7.54l-8.99-.11c.7-1.89,3.14-.88,5.04-1.55-5.07-.54-9.42-1.85-12.03-6.39-.64-1.11-2.43-2.75-2.23-4.42.14-1.23,1.22-3.15,2.25-4.25,1.85-1.97,4.73-3.38,5.13-6.37l2.86.06Z"/>
      <path class="cls-2" d="M124.45,259.73l14.15.64,6.21-.14c2.36,3.14,2.86,7.03,2.82,11.12l-.29,32.99c-.02,1.9-.36,4.53-1.34,4.9l-4.73,1.81c-1.62,2.61,1.32,7.49,4.05,7.53.55.69,1.24,1.63,1.28,2.38.15,3.61,2.69,5.27,5.12,8.29,1.63,2.03,2.62,7.42,5.82,7.8,3.46-.49,4.36-5.71,5.82-8.17l8.73-14.68-2.55-5.81,9.03.26-21.06,35.56-21.11-35.45c3.48-.05,6.1.5,9.09-.53l.08-45.74c-10.75-1.27-20.85-.3-30.98-.6-.15-1.12.74-1.38,1.95-1.49l7.9-.68Z"/>
      <path class="cls-8" d="M291.58,193.35l-.05-1.17c7.15-.02,15.6-8.2,15.63-15.46l.14-27.21c.06-10.64-9.93-16.28-19.82-16.2l-63.98.53c-6.42.05-12.16,7.24-13.61,12.67-1.84,6.88-5.88,4.58-18.86,5.47-7.32.5-14.21,1.49-20.32,5.03,9.07-7.08,23.23-7.78,36.29-7.5,2.18-8.26,8.72-17.74,18.45-17.73l66.01.04c7.98,0,16.38,7.93,17.34,15.96,1.19,10,1.35,20.32-.11,29.99-1.3,8.61-9.58,15.54-17.11,15.56Z"/>
      <path class="cls-2" d="M169.41,220.34l.14,19.06c-1.52,2.49-1.52,6.5,0,8.99v3.99c-.9.03-1.09.73-1.09,1.5,0,.76.19,1.47,1.09,1.5v5.99c-.66.1-1.05.86-1.05,1.93v15.12c0,1.07.39,1.82,1.05,1.93v26.96s-1.77,1.12-1.77,1.12l-.25-70.02-.09-16.07c0-.8.3-1.55.63-1.82.28-.23.93-.27,1.33-.17Z"/>
      <path class="cls-1" d="M78.75,287.48c-1.57,1.62-4.25,3.67-7.39,3.68l-56.63.19c-1.95,0-3.49-.96-4.33-2.04l62.12.03c2.13-1.12,4.14-2.18,6.24-1.87Z"/>
      <path class="cls-1" d="M12.45,209.62l.14,1.13c-4.51.05-10.64,5.91-10.66,10.69l-.29,52.96c-.02,2.9.19,6.82,2.09,8.71l6.02,6.28C5.49,288.3-.01,282.89,0,277.03l.13-55.33c.01-6.01,7.34-12.06,12.32-12.08Z"/>
      <path class="cls-1" d="M336.83,94.33c-3.06.62-5.15-2.33-7.8-3.12l-10.79-3.23c-2.74-.82-5.99-1.17-8.87-1.18l-43.08-.17c-1.73,0-2.46-.11-3.89-1.1l52.97.03c4.73,1.25,9.48,2.13,13.6,4.46l7.86,4.3Z"/>
      <path class="cls-2" d="M291.53,192.18l.05,1.17-68.03.14c-1.38,0-2.34-.79-3.09-1.09.84-2.13,2.99,0,4.2,0l66.87-.22Z"/>
      <path class="cls-8" d="M198.57,107.9l-.03.64c-4.24,3.24-11.54,2.79-18.06,8.87s-10.51,13.68-10.65,22.38l-.26,16.72c-.43.31-2.04-.01-2.02-.9l.44-16.73c2.71-15.83,14.59-29.64,30.59-30.99Z"/>
      <path class="cls-2" d="M331.71,372.04l-66.07,1.53c-.83.02-1.37-1.37-1.14-1.48l67.22-.05Z"/>
      <path class="cls-2" d="M101.51,259.71l6.08.66c1.21.13,1.81.69,1.84,1.38l-24.85.29c2.33-3.02,7.76-2.62,11.8-2.08,2.32.31,3.64-.41,5.13-.24Z"/>
      <polygon class="cls-11" points="72.63 210.05 12.58 210.75 12.45 209.62 72.63 210.05"/>
      <path class="cls-2" d="M279.67,331.29c2.28,0,5.27-.78,6.78,1.25l-54.84-.57c-.11.03.25-.69,1.02-.69l47.04.02Z"/>
      <path class="cls-1" d="M346.55,225.55c-1.09,1.19-2.7,2-5.09,1.98l-37.42-.28c6.81-2.26,12.66-5.19,18.35-9.07l-8.82,7.74,27.92.52c1.87.03,3.62-.7,5.07-.89Z"/>
      <path class="cls-2" d="M248.5,372.24v.99s-2.86-.06-2.86-.06l-48.26.11c-1.23.16-1.8-.54-1.48-1.47l52.59.42Z"/>
      <polygon class="cls-11" points="338.43 260.35 340.51 260.12 340.32 261.62 292.61 260.77 338.43 260.35"/>
      <path class="cls-1" d="M338.14,156.77l.93.75c.31.23,1.79.21,1.54.46-.59.59-2.21.88-3.22,1.12l2.96,11.2-8.33-13.35,6.12-.18Z"/>
      <path class="cls-11" d="M266.11,107.46l44.26.54-46.94.72c.96-.61,1.29-1.29,2.67-1.27Z"/>
      <path class="cls-2" d="M240.54,107.46c.37,0,.91.15,1.37.29.4.12.7.5.55,1l-43.91-.2.03-.64,41.96-.44Z"/>
      <path class="cls-1" d="M81.71,284.42l-.14-.89.05-2.2c-.02-.54-.05-1.31.2-1.8,2.21-4.34,1.68-9.48,1.53-14.25.29-.79.52-2.35,1.22-3.24,1.94,6,.49,18.92-2.85,22.38Z"/>
      <path class="cls-11" d="M349.17,260.25l29.24.12c1.02,0,.74,1.31.88,1.76l-31.76-.49-.19-1.51,1.83.12Z"/>
      <path class="cls-1" d="M331.44,209.42l6.06-10.85c2.86-5.1,3.08-11.61,3.03-17.09,2.38,9.85-1.43,21.24-9.09,27.94Z"/>
      <path class="cls-7" d="M347.33,260.13l.19,1.51-7.21-.03.18-1.5c2.22-.67,4.56-.13,6.83.01Z"/>
      <path class="cls-8" d="M169.55,280.34c-.67-.11-1.05-.86-1.05-1.93v-15.12c0-1.07.39-1.82,1.05-1.93v18.98Z"/>
      <path class="cls-8" d="M169.55,248.38c-1.52-2.49-1.52-6.5,0-8.99v8.99Z"/>
      <path class="cls-1" d="M324.54,216.85c.89-2.31,3.21-3.57,4.82-5.26.19,2.93-2.35,4.51-4.82,5.26Z"/>
      <path class="cls-8" d="M169.55,255.37c-.9-.03-1.09-.73-1.09-1.5,0-.76.19-1.47,1.09-1.5v3Z"/>
      <path class="cls-8" d="M169.39,200.48c-.39.04-.68-.26-.69-.68,0-.61.43-1.1.92-1.37l-.24,2.05Z"/>
      <path class="cls-3" d="M144.51,238.1l.87-.67c.47.61-.32,1.31-.87.67Z"/>
      <path class="cls-8" d="M335.53,309.15l-1.08-.17c.33,0,.76-.04,1.08.17Z"/>
      <path class="cls-8" d="M169.55,308.39c-.23-.08-.77-.16-1.77.03l1.77-1.12v1.09Z"/>
      <path class="cls-8" d="M340.56,142.54l-.1-1.04c.99-.25,1.27.99.1,1.04Z"/>
      <path class="cls-8" d="M364.15,137.74c-.27-.42-.44-.86-.51-1.36.29.34.5.84.51,1.36Z"/>
      <path class="cls-8" d="M312.46,109.66l-1.63-.63c.45-.33,1.52-.44,1.63.63Z"/>
      <polygon class="cls-1" points="340.45 172.48 340.38 171.51 341.72 171.41 340.45 172.48"/>
      <path class="cls-12" d="M359.68,441.89c-.24,2.4-1.93,3.46-3.8,4.73-40.11,27.17-83.61,39.96-132.38,34.69-27.67-2.99-53.19-11.39-78.31-22.71l-8.4-3.79-24.63-14.37c-9.42-6.67-18.67-14.04-26.58-23.49l34.12,12.08c72.33,53.15,162.97,57.89,239.98,12.85Z"/>
      <rect class="cls-12" x="84.76" y="416.31" width=".71" height=".71" transform="translate(-269.77 182.33) rotate(-45.02)"/>
      <path class="cls-5" d="M277.88,236.51c5.97,8.99,5.13,20.87-2.04,28.94s-18.87,10.31-28.52,5.45c-5.18-5.56-8.05-12.78-7.34-20.66.64-7.12,5.47-14.39,12.96-17.39,8.4-3.37,17.55-.8,24.93,3.66Z"/>
      <path class="cls-4" d="M435.12,242.54c2.49,8.06.52,16.83-5.18,23.04-5.7,6.21-14.28,8.93-22.53,7.14-8.07-5.52-13.45-15.01-12.06-25.26.86-6.34,5.85-11.56,10.25-13.68,6.58-3.17,13.33-2.17,18.65,1.72l10.87,7.03Z"/>
      <path class="cls-6" d="M207.78,285.6c.11,16.58,12.15,30.64,28.69,30.68l40.21.09,2.35.19.2,8.6-3.08.03-38.63-.05c-22.5-.03-38.39-18.16-38.33-40.24l8.59.7Z"/>
      <path class="cls-5" d="M335.86,254.35l-42.1-.06-.12-8.85,41.66-.08c6.05-.01,10.82-3.72,14.31.66,1.44,1.81,1.34,5.42.08,7.14-3.25,4.46-7.45,1.19-13.82,1.18Z"/>
      <path class="cls-13" d="M435.12,242.54l-10.87-7.03c-5.31-3.89-12.07-4.89-18.65-1.72-4.4,2.12-9.4,7.34-10.25,13.68-1.39,10.25,3.99,19.73,12.06,25.26-11.28-2.45-19.16-12.66-18.67-24.19.49-11.53,9.21-21.03,20.66-22.51s22.3,5.49,25.72,16.51Z"/>
      <path class="cls-9" d="M207.78,285.6l-8.59-.7.07-21.66c1.41-11.49,11.74-19.45,23.2-17.69.47,2.92.46,5.76-.02,8.89-4.23-.03-8.44.23-11.25,3.01-2.29,2.27-3.56,6.06-3.54,9.86l.13,18.29Z"/>
      <polygon class="cls-6" points="465.21 254.38 448.46 254.25 447.65 245.51 465.22 245.41 465.5 238.08 483.53 249.69 465.56 261.38 465.21 254.38"/>
      <path class="cls-14" d="M277.88,236.51c-7.37-4.45-16.53-7.02-24.93-3.66-7.5,3-12.32,10.27-12.96,17.39-.71,7.88,2.15,15.1,7.34,20.66-8.92-4.5-14.09-14.08-12.93-24s8.39-18.06,18.11-20.38c9.72-2.32,19.86,1.67,25.38,9.99Z"/>
      <path class="cls-8" d="M349.17,260.25l-1.83-.12c-2.26-.15-4.61-.69-6.83-.01l-2.08.23c-.41-2.02-1.05-4.08-2.57-6.01,6.37,0,10.57,3.28,13.82-1.18,1.26-1.73,1.36-5.33-.08-7.14-3.49-4.39-8.25-.67-14.31-.66.24-1.81,1.76-5.44,4.19-5.66,3.8-.35,8.86-1.25,12.51.61,2.74,1.86,4.43,9.39,3.01,12.43-1.55,3.32-5.13,4.43-5.84,7.51Z"/>
      <path class="cls-5" d="M377.22,254.39l-18-.12c.86-1.48,1.64-2.39,1.93-3.65.31-1.38-.64-2.74-2.13-4.92l18.15-.24.06,8.94Z"/>
      <path class="cls-9" d="M296.46,151.14c-.1.69.19,1.17.34,1.61-1.95.76-1.45,3.46-1.35,5.73l.14,3.28c.02.55.72,1.04,1.66,1.19l-.18,10.09c-.07,3.85-2.96,8.7-7.59,8.68l-63.89-.36c-.48-9.63-1.42-26.05,1.16-29.07,1.27-1.49,3.2-2.15,5.76-2.15l56.92.02c2.67,0,4.93.16,7.03.99Z"/>
      <path class="cls-6" d="M238.6,92.83l10.19.24-.84,6.29c-.2,1.52-1.39,2.26-3.39,2.26h-7.51s-31.53-.17-31.53-.17c-10.31-.06-20.4,2.23-28.16,8.84-10,8.5-15.17,20.1-15.67,33.23-.18,4.69,1.04,10.35-.66,14.61-1.35,3.17-5.63,5.09-7.43,8.68l-.39-25.25c-.35-23.04,20.87-48.6,48.3-48.66l37.08-.07Z"/>
      <path class="cls-11" d="M167.53,238.4l.25,70.02c1-.19,1.54-.11,1.77-.03l2.55,5.81-8.73,14.68c-1.46,2.46-2.36,7.68-5.82,8.17-3.2-.38-4.19-5.77-5.82-7.8-2.43-3.02-4.97-4.68-5.12-8.29.47.16.96.51,2.15.29l-.26-6.2c-2.27.17-2.89,1.89-3.16,3.53-2.73-.04-5.68-4.92-4.05-7.53l4.73-1.81c.97-.37,1.32-3.01,1.34-4.9l.29-32.99c.04-4.09-.46-7.98-2.82-11.12l-6.21.14c-.09-.79-.26-1.67-.02-2.98,10.71-1.55,10.11,7.89,14.5,8.06l.28,8.8c-2.19.14-1.94,1.98-1.93,3.6s-.27,3.45,1.92,3.61v2.76c-.96-.18-1.61.33-1.65.9l-.23,3.21.23,3.21c.04.58.69,1.09,1.65.91l-.3,7.92c-1.01-.03-2.08.41-2.85,1.14-.83.8,1.38,5.22,3.24,5.73.07,1.13-.34,2.73.09,3.79.14.34.15,1.01,1.13,1.2l6.22,1.15c1.7.32,2.54-1.51.61-2.18l.22-10.83c.95.26,1.7-.21,1.74-.81l.21-3.24-.21-3.26c-.04-.57-.78-1.06-1.73-.8l.02-12.83c.72.12,1.48-.04,1.84-.6s-.08-1.31-.51-1.45c-.34-.11-.86-.09-1.27-.11l.12-31.65c5.78.49,1.33-5.25,5.63-7.21Z"/>
      <path class="cls-12" d="M161.52,224.87l.38,20.74-.12,31.65-.05,2.17-.02,12.83v8.11s-.23,10.83-.23,10.83l-7.95-.17c-.43-1.06-.02-2.66-.09-3.79l-.39-6.87.3-7.92v-8.23s0-2.76,0-2.76c0-2.4.09-4.8.01-7.21l-.28-8.8-.37-11.13-23.21.2c2.34-2.95,1.44-5.71-.38-8.91l23.72-.2-.59-20.96c3.22.96,6.12,1.37,9.28.43Z"/>
      <path class="cls-14" d="M296.46,151.14c-2.09-.83-4.36-.99-7.03-.99l-56.92-.02c-2.56,0-4.49.66-5.76,2.15-2.58,3.02-1.64,19.44-1.16,29.07-3.67-.02-5.94-4.98-5.97-7.82l-.25-21.09c-.06-4.74,3.2-8.63,8.18-8.62l62.7.1c3.91,0,6.67,4.05,6.21,7.23Z"/>
      <path class="cls-12" d="M162.11,201.35c-2.83-.35-6.21-.99-9.19.16.87-23.92,16.5-43.78,40.98-43.52l13.5.14-.06,8.51-15.56.27c-17.97.31-29.98,16.58-29.67,34.44Z"/>
      <path class="cls-8" d="M162.11,201.35c4.16.51,5.73,3,5.61,7.07-.22,7.49.54,14.46-6.2,16.45-3.16.94-6.06.53-9.28-.43-4.53-1.35-5.7-5.44-5.77-10.02-.08-5.39,1.14-10.88,6.44-12.91,2.98-1.14,6.36-.51,9.19-.16ZM163.29,213.45c0-3.26-2.65-5.91-5.91-5.91s-5.91,2.64-5.91,5.91,2.65,5.91,5.91,5.91,5.91-2.64,5.91-5.91Z"/>
      <path class="cls-14" d="M297.25,162.94c-.94-.14-1.64-.64-1.66-1.19l-.14-3.28c-.1-2.27-.6-4.97,1.35-5.73,1.08,3.33.51,6.68.45,10.2Z"/>
      <path class="cls-13" d="M72.59,227.6l.03,51.32-54.04.04c-.85-4.2-.75-8.24-.72-12.6l.29-33.03c.03-2.95,1.05-5.9,4.57-5.89l49.87.16Z"/>
      <path class="cls-10" d="M72.59,227.6l-49.87-.16c-3.52,0-4.54,2.94-4.57,5.89l-.29,33.03c-.04,4.36-.13,8.39.72,12.6h-6.63s-.04-57.98-.04-57.98l60.67-.04v6.66Z"/>
      <path class="cls-12" d="M101,245.46c2.72-.01,6.12.6,8.6-.28-1.92,2.98-1.85,5.97-1.16,9.13l-8.3.1-15.47-.09.02-8.79,16.31-.07Z"/>
      <path class="cls-2" d="M83.35,265.28c.15,4.77.68,9.91-1.53,14.25-2.74-5.47-2.77-10.44,1.53-14.25Z"/>
      <path class="cls-2" d="M81.62,281.33l-.05,2.2c-.72.12-1.49-.04-1.96-.7-.34-.49-.13-1.25.58-1.33l1.43-.17Z"/>
      <path class="cls-6" d="M240.51,379.54c-1.03,1.1-2.11,3.03-2.25,4.25-.2,1.67,1.6,3.32,2.23,4.42l-41.77.29c-.66-3.16-.72-5.51-.17-8.58l41.96-.38Z"/>
      <path class="cls-6" d="M266.58,388.72l-6.06-.58.75-8,6.02-.4,59.89.16c16.27.04,28.49-12.2,27.84-28.55-.59-14.72-11.55-26.12-26.6-26.15l-19.21-.03c1.91-3.59-.27-5.65-1.69-8.71l23.9.15c18.87,1.65,32.32,17.81,32.29,36.23-.02,17.59-13.51,35.19-32.22,35.35l-64.9.53Z"/>
      <path class="cls-6" d="M356.81,149.93l-.46,6.71c-1.92-.1-5-.79-6.78.12-1.92-2.03-1.35-4.77-1.28-7.12.37-12.28-2.23-24.46-10.92-34.23-6.89-7.75-17.28-13.51-27.83-13.68l-33.07-.53,3.99-4.23c-2.14-1.56-3.62-2.23-5.02-4.29l35.65.48c28.5,2.87,47.59,29.1,45.71,56.77Z"/>
      <g>
        <path class="cls-2" d="M41.18,177.93c.13-.5.56-1.02.55-1.51l-.02-1.76c.99.05,1.85-.45,2.32-1.79,5.18-14.6,11.64-28.08,19.75-41.28,1.97-11.79,6.16-22.07,10-32.76.31-1.36,2.26-2.16,1.82-5.02-3.01,1.56-3.96,4.76-5.88,6.63-2.52,2.48-4.41,5.27-6.48,7.99-20.25,26.69-34.42,57.37-41.88,90.73l-14.32.67C37.24,53.89,191.56-37.74,332.08,15.1c94.17,35.41,158.35,121.23,163.94,221.56l-14.18-8.91c-4.69-37.16-15.82-72.81-36.48-104.11-9.7-14.7-23.81-26.77-41.57-30.81,15.28,16.69,28.36,32.57,38.4,51.8,12.18,22.94,19.85,47.06,24.24,72.99l-16.13-11.03c-4.2-16.92-9.01-32.66-16.74-48.33-26.76-54.25-76.24-94.62-135.02-109.57C188.63,20.72,76.97,90.35,49.96,199.27l-13.96.11,5.18-21.44ZM202.96,33.71c64.06-13.32,129.69,1.93,181.06,42.42,9.52,1.47,18.01,2.86,27.33,5.68-1.85-3.07-4.32-4.52-7.2-5.96l-4.34-4.11-4.8-4.94c-33.99-26.96-73.94-45.4-117.69-50.89-52.21-6.55-106.15,5.12-149.79,34.71-17.41,11.81-29.13,30.58-39.73,48.52,20.71-18.62,39.98-35.23,64.13-47.11,16.63-7.89,33.13-14.59,51.03-18.31ZM76.12,92.59l-.5.5.5.5.5-.5-.5-.5Z"/>
        <path class="cls-7" d="M364.13,171.06l-.04,15.34c-.19-.11-.85-.08-1.13.15-.86.72.28,10.71-6.75,24.6-1.59,3.15-2.64,6.24-5.64,8.54-.84.64-1.16,1.95-1.14,2.71l-2.88,3.15c-1.45.19-3.2.92-5.07.89l-27.92-.52,8.82-7.74c.59-.4,1.05-1.45,2.15-1.33,2.48-.75,5.02-2.33,4.82-5.26l2.08-2.18c7.66-6.7,11.47-18.08,9.09-27.94l-.08-9,1.27-1.08c2.95,3.29,7.49,6.16,12.72,5.94,4.02-.16,7.76-3.33,9.7-6.29ZM356.54,184.68c-1.79.84-2.75,3.64-3.86,3.6-2.49-.09-3.02-2.61-4.16-4.2-.98,12.83-5.04,23.19-13.72,32.13,3.84.75,8,.71,10.73-.72,7.85-8.39,11.2-19.55,11.01-30.81Z"/>
        <path class="cls-3" d="M41.71,174.66c5.65-22.58,13.33-44.48,24.18-65.04,2.24-2.15,3.38-5.34,4.9-8.15.58-1.07,1.78-2.02,3-2.63-3.84,10.69-8.03,20.97-10,32.76-8.11,13.2-14.57,26.67-19.75,41.28-.48,1.34-1.34,1.84-2.32,1.79Z"/>
        <path class="cls-1" d="M364.09,186.4l-.82,9.01c-1,10.9-7,19.52-13.83,26.99-.01-.76.31-2.06,1.14-2.71,3-2.3,4.04-5.39,5.64-8.54,7.03-13.89,5.89-23.89,6.75-24.6.28-.23.93-.26,1.13-.15Z"/>
        <path class="cls-3" d="M41.18,177.93c-.31-.45-.35-1.44.55-1.51,0,.49-.43,1.01-.55,1.51Z"/>
        <path class="cls-3" d="M399.82,71.74l4.34,4.11c2.87,1.43,5.35,2.88,7.2,5.96-9.31-2.81-17.81-4.21-27.33-5.68-51.37-40.49-117-55.74-181.06-42.42.99-1.06,1.95-1.84,3.4-2.29,57.82-17.72,119.4-5.91,170.35,25.84l23.1,14.48Z"/>
        <rect class="cls-10" x="75.77" y="92.73" width=".71" height=".71" transform="translate(-43.53 81.12) rotate(-45.02)"/>
        <path class="cls-6" d="M356.54,184.68c.18,11.26-3.17,22.42-11.01,30.81-2.74,1.44-6.89,1.47-10.73.72,8.69-8.95,12.75-19.31,13.72-32.13,1.14,1.59,1.67,4.11,4.16,4.2,1.11.04,2.08-2.77,3.86-3.6Z"/>
      </g>
      <path class="cls-10" d="M247.95,99.36l.84-6.29c2.32.05,4.61-3.26,7.53-1.67,2.47,1.35,4.18,3.48,3.75,6.44s-2.68,5.24-5.88,5.27c-2.38.03-4.79-1.61-6.25-3.75Z"/>
      <path class="cls-14" d="M356.36,156.65c2.26,2.68,3.06,6.73.8,9.19-2.56,2.79-7.12,2.27-9.16-.48-1.82-2.46-.88-6.95,1.58-8.59,1.77-.91,4.85-.23,6.78-.12Z"/>
      <path class="cls-10" d="M287.05,325.47c-1.32-2.95-1.24-6.23.5-9.36,3.27-1.17,7.06-2.06,9.32,1.21,1.68,2.43,1.57,6.57-1.77,8.83-2.24,1.52-4.95-.56-8.05-.69Z"/>
      <path class="cls-4" d="M287.55,316.11c-1.74,3.13-1.82,6.41-.5,9.36l-7.83-.31-.2-8.6,8.52-.45Z"/>
      <path class="cls-7" d="M129.5,254.51l23.21-.2.37,11.13c-4.38-.17-3.78-9.62-14.5-8.06-.24,1.32-.08,2.19.02,2.98l-14.15-.64c.21-2.68,2.63-5.2,5.05-5.22Z"/>
      <path class="cls-10" d="M108.44,254.31c-.69-3.16-.77-6.16,1.16-9.13,3.24-1.15,7-1.97,9.3,1.27,1.7,2.4,1.52,6.42-1.73,8.68-2.54,1.77-5.38-.86-8.73-.82Z"/>
      <path class="cls-5" d="M261.27,380.14l-.75,8c-2.8,2.18-6.67,2.81-9.17.58-2.67-2.38-2.98-6.42-.18-8.85,3.23-2.8,7.01-1.16,10.11.27Z"/>
      <path class="cls-7" d="M146.61,320.97c-.03-.75-.72-1.7-1.28-2.38.27-1.64.89-3.36,3.16-3.53l.26,6.2c-1.18.22-1.67-.13-2.15-.29Z"/>
      <path class="cls-7" d="M153.04,300.37l.39,6.87c-1.86-.51-4.07-4.93-3.24-5.73.76-.73,1.83-1.17,2.85-1.14Z"/>
      <path class="cls-7" d="M153.35,284.22v8.23c-.96.18-1.61-.33-1.65-.91l-.23-3.21.23-3.21c.04-.57.7-1.08,1.65-.9Z"/>
      <path class="cls-7" d="M161.7,300.37v-8.11c.96-.26,1.7.23,1.74.8l.21,3.26-.21,3.24c-.04.6-.79,1.08-1.74.81Z"/>
      <path class="cls-7" d="M153.36,274.24c.08,2.41-.01,4.81-.01,7.21-2.19-.17-1.91-2.02-1.92-3.61s-.26-3.46,1.93-3.6Z"/>
      <path class="cls-7" d="M161.48,311.2c1.93.66,1.1,2.49-.61,2.18l-6.22-1.15c-.97-.18-.99-.86-1.13-1.2l7.95.17Z"/>
      <path class="cls-7" d="M161.73,279.43l.05-2.17c.41.02.94,0,1.27.11.43.14.86.91.51,1.45s-1.12.73-1.84.6Z"/>
      <circle class="cls-14" cx="157.38" cy="213.45" r="5.91"/>
      <g>
        <path class="cls-7" d="M195.9,371.82c-.32.92.25,1.63,1.48,1.47l48.26-.11c-.4,2.99-3.28,4.4-5.13,6.37l-41.96.38c-.55,3.06-.49,5.41.17,8.58l41.77-.29c2.61,4.54,6.96,5.85,12.03,6.39-1.9.67-4.34-.34-5.04,1.55h-50.92c-6.83,19.75-28.08,29.09-47.07,21.66-18.28-7.15-27.41-28.59-19.61-47.23,5.98-14.29,18.88-22.57,34.12-22.22,14.22.32,27.1,9.58,31.9,23.45ZM164.54,408.06c9.16-.75,17.07-6.7,20.31-15.3s1.25-18.28-5.12-24.9c-7.68-7.96-19.83-9.58-29.33-3.91s-13.83,17.14-10.45,27.67,13.57,17.34,24.6,16.44Z"/>
        <path class="cls-6" d="M179.73,367.86c6.38,6.61,8.37,16.3,5.12,24.9s-11.15,14.55-20.31,15.3c-8.97-2.11-17.5-8.71-19.09-18.87s5.2-19.84,14.59-22.45c6.82-1.9,13.31-.45,19.69,1.13Z"/>
        <path class="cls-5" d="M179.73,367.86c-6.38-1.58-12.88-3.03-19.69-1.13-9.39,2.61-16.14,12.54-14.59,22.45s10.12,16.75,19.09,18.87c-11.03.9-21.22-5.91-24.6-16.44s.96-21.99,10.45-27.67,21.65-4.05,29.33,3.91Z"/>
      </g>
    </g>
    <g>
      <path class="cls-1" d="M1043.79,319.79c0,25.46-20.65,46.1-46.13,46.1s-46.13-20.64-46.13-46.1,20.65-46.1,46.13-46.1,46.13,20.64,46.13,46.1ZM1034.1,319.71c0-20.14-16.33-36.46-36.48-36.46s-36.48,16.32-36.48,36.46,16.33,36.46,36.48,36.46,36.48-16.32,36.48-36.46Z"/>
      <path class="cls-1" d="M622.42,348.74c-7.15,21.47-49.24,21.3-64.96,4.19.89-2.82,2.01-5.34,3.72-7.84,12.3,11.2,30.09,14.77,44.92,8.25,5.26-2.32,7.83-7.69,7.76-12.49-.07-5.25-3.29-9.96-8.67-11.61l-23.72-7.28c-6.61-2.03-13.51-4.31-17.87-10.05-8.32-10.96-3.82-27.44,8.92-33.34,15.21-7.05,33.6-5.26,47.42,3.75-.57,3.36-1.82,5.82-3.62,8.32-11.49-7.7-26.07-10.43-38.27-4.8-5.23,2.41-8.53,7.27-8.64,12.03-.13,5.82,3.12,10.99,8.74,12.72l20.64,6.38c6.75,2.09,13.83,3.83,19.06,8.81,6.12,5.83,7.27,14.9,4.58,22.97Z"/>
      <path class="cls-1" d="M673.24,284.07c-.53,0-2.03.11-2.03,1.3l-.06,74.88c0,1.8.22,2.7,1.92,3.33-3.19,1.12-6.33.8-10.27.46l-.18-80.05-30.86-.05.11-8.62,71.64.07.04,8.53-30.31.16Z"/>
      <rect class="cls-1" x="881.31" y="314.8" width="88.96" height="9.95" transform="translate(605.9311 1245.535) rotate(-89.9948)"/>
      <path class="cls-11" d="M673.24,284.07l-.18,79.51c-1.69-.63-1.92-1.53-1.92-3.33l.06-74.88c0-1.19,1.5-1.3,2.03-1.3Z"/>
      <g>
        <path class="cls-1" d="M896,340.86c-7.54,14.47-21.84,23.08-37.94,23.14l-40.34.15v-88.76s40.34.14,40.34.14c15.81.06,29.86,8.67,37.41,22.25,6.37,13.71,6.7,28.75.53,43.09ZM827.74,354.9l27.37.52c10.29.2,20.46-3.99,27.1-12.06,11.6-14.12,10.95-35.28-1.4-48.72-6.58-7.16-16.16-10.65-25.68-10.66l-26.67-.02c-.78,0-2.37.38-2.37,1.41v67.8c-.01.47,1.12,1.73,1.66,1.74Z"/>
        <path class="cls-2" d="M828.46,283.95l-.71,70.95c-.54-.01-1.67-1.27-1.67-1.74v-67.8c.01-1.03,1.6-1.41,2.39-1.41Z"/>
      </g>
      <g>
        <path class="cls-1" d="M781.28,275.7l9.57-.15-.49,58.17c-.08,9.75-4.7,18.61-12.15,24.49s-15.99,6.79-25.05,6.99c-19.52.43-34.88-13.17-35.03-33.16l-.4-56.63,9.88-.07.3,54.94c.04,7.86,3.24,16,9.63,20.71,10.15,7.49,25.48,7.05,35.25-.96,5.43-4.45,8.03-12.1,8.08-18.96l.4-55.37ZM789.1,327.3l.1-49.08c0-1.62-5.27-2.03-6.05-.59l-.16,58.48c0,1.46,1.81,2.66,2.66,2.72.64.05,2.08-.88,2.21-1.93l1.24-9.6Z"/>
        <path class="cls-11" d="M789.1,327.3l-1.24,9.6c-.14,1.05-1.58,1.98-2.21,1.93-.85-.06-2.66-1.26-2.66-2.72l.16-58.48c.78-1.44,6.05-1.04,6.05.59l-.1,49.08Z"/>
      </g>
    </g>
    <g>
      <polygon class="cls-2" points="825.65 223.38 877.98 223.46 877.92 243.9 801.5 243.95 801.53 176.96 873.61 176.97 873.49 197.34 825.88 197.35 825.65 223.38"/>
      <rect class="cls-2" x="829.54" y="104.4" width="20.08" height="76.09" transform="translate(696.86 981.98) rotate(-89.98)"/>
      <g>
        <path class="cls-11" d="M919.14,221.69c.39.56.76,1.43.79,2.01.06,1.34.75,1.78,2.03,1.77l44.08-.3-.12,17.23h-68.89s-.05-107.84-.05-107.84c6.75-1.6,12.95-1.19,19.91-.63l.36,15.78-.04,43.66c0,2.62.19,4.42.14,7.21l-.28,15.76c-.04,2.2,1.04,3.85,2.08,5.35Z"/>
        <path class="cls-1" d="M919.14,221.69c-1.03-1.5-2.12-3.14-2.08-5.35l.28-15.76c.05-2.79-.14-4.59-.14-7.21l.04-43.66-.36-15.78c-6.97-.56-13.16-.97-19.91.63l.05,107.84h68.89s.12-17.23.12-17.23l-44.08.3c-1.28,0-1.97-.43-2.03-1.77l47.85-.23.21,19.69c-5.73.78-10.79.62-16.44.58l-56.55-.4.27-110.78,23.91-.04-.03,89.16Z"/>
      </g>
      <g>
        <path class="cls-11" d="M1115.89,133.59c1.03,0,2.24.1,2.66.82.59,1.01.45,1.82.44,3.17l-.1,96.73c0,3.06,1.19,4.94-.23,8.65l-17.22-1.09c-5.06-1.87-6.94-8.33-9.73-12.12l-7.68-10.44-6.78-10.32-17.67-25.12c-2.25-3.2-3.61-6.82-7.15-8.44-.25.11-.61.06-.69-.09-.01-1.36-.7-1.43-1.17-1.53-.82-.16-1.67.6-1.67,1.79l.18,60.81c0,2.49-.22,5.67-3.31,5.73l-16.9.33-.07-8.95c-1.05-3.71-.02-5.88,0-9.26l.32-90.16c6.19-1.07,11.74-.54,17.82-.32l16.58,23.12,22.66,33.18,5.82,8.22c1.44,2.03,3.07,4.22,5.87,2.77l.02-67.45,18-.04Z"/>
        <path class="cls-1" d="M1115.88,132.49v1.1s-17.99.04-17.99.04l-.02,67.45c-2.79,1.46-4.43-.73-5.87-2.77l-5.82-8.22-22.66-33.18-16.58-23.12c-6.08-.22-11.63-.75-17.82.32l-.32,90.16c-.01,3.38-1.04,5.55,0,9.26l.07,8.95,16.9-.33c3.09-.06,3.32-3.24,3.31-5.73l-.18-60.81c0-1.19.84-1.95,1.67-1.79.47.09,1.16.17,1.17,1.53-.53.26-.81,1.07-.82,2.16l-.43,66.45-12.55.32-11.14-.41-.08-17.88.19-93.55,21.81.2,46.93,68.07.29-68.13,19.94-.08Z"/>
        <path class="cls-2" d="M1052.43,175.44c3.54,1.61,4.9,5.24,7.15,8.44l17.67,25.12,6.78,10.32,7.68,10.44c2.79,3.79,4.67,10.25,9.73,12.12l17.22,1.09c1.42-3.71.23-5.59.23-8.65l.1-96.73c0-1.35.15-2.17-.44-3.17-.42-.72-1.63-.82-2.66-.82v-1.1s4.64.1,4.64.1l.34,11.01-.02,89.72-.57,10.55c-7.54.27-13.79.74-20.71-.25l-47.13-68.19Z"/>
      </g>
      <path class="cls-14" d="M825.11,166.81l-23.3.75c-.55-2.11-.63-4.06-.01-6.77l23.01.19c1.49.01,1.96,5.78.31,5.83Z"/>
      <g>
        <polygon class="cls-7" points="998.7 244.06 998.5 132.53 1008.01 132.66 1007.96 243.92 998.7 244.06"/>
        <path class="cls-7" d="M992.85,243.6c-.23-.03-.66-.08-.85-.23-2.01-1.68-4.88-.98-8.05-.93l.11-105.7c0-2.48,4.01-4.31,7.7-2.14.5-1.07.26-1.64.21-2.1l1.29.06-.41,111.04Z"/>
        <path class="cls-5" d="M998.5,132.53l.2,111.53c-1.91.03-4.16.49-5.85-.46l.41-111.04,5.25-.02Z"/>
        <path class="cls-2" d="M991.97,132.49c.05.46.29,1.04-.21,2.1-3.69-2.17-7.7-.34-7.7,2.14l-.11,105.7c3.17-.05,6.03-.75,8.05.93l-9-.09-.25-110.62,9.21-.16Z"/>
      </g>
      <g>
        <path class="cls-11" d="M779.28,193.57c-.32.17-.92.54-1.17.83-2.21.19-3.87,1.8-4.14,3.99-.05.42-.58.77-.83,1.01-6.9,2.65-13.54,6.46-22.46,6.62l-23.56.43c-1.09.02-1.29,1.39-.99,1.96.12.23,0,.7,0,.94-.72-.07-1.33.68-.97,1.54.14.32.46.64.99.54.01,1.69-.24,3.35-.31,5.03l-1.05,25.78-19.67.3c-1.5.02-2.31-2.97-1.75-4.01,1.75-3.27.03-6.39.39-8.95.89-6.43.26-11.96-.12-18.38-.34-5.7,1.93-12.37,0-18.23-1.16-3.51.38-6.21.38-9.53l-.02-48.82,12.71-.61h33.92c20.63-.02,38.51,19.58,33.78,42.68-.77,3.74-.88,7.43-3.29,10.84-1.28,1.81-2.03,4.05-1.8,6.06ZM746.09,188.23c10.07,0,16.33-7.96,16.34-17.79.01-8.41-4.43-17.84-13.36-17.93l-23.06-.25.02,35.96h20.06Z"/>
        <path class="cls-1" d="M779.28,193.57c-.23-2.01.52-4.24,1.8-6.06,2.41-3.41,2.52-7.1,3.29-10.84,4.73-23.09-13.14-42.69-33.78-42.69h-33.92s-12.71.62-12.71.62l.02,48.82c0,3.33-1.53,6.02-.38,9.53,1.94,5.86-.33,12.53,0,18.23.38,6.42,1.01,11.96.12,18.38-.36,2.56,1.36,5.69-.39,8.95-.56,1.04.25,4.03,1.75,4.01l19.67-.3,1.05-25.78.33,27.21c-8.09.7-16.02.81-23.98.06l-.02-110.94,20.62-.67c12.36-.4,24.93-1.17,36.75,1.86,15.61,4,25.74,16.51,27.15,32.05.88,9.65-1.5,20.98-7.39,27.55Z"/>
        <path class="cls-1" d="M773.15,199.41c-6.17,5.98-14.58,8.52-23.43,8.66l-23.6.35c-.3-.56-.1-1.94.99-1.96l23.56-.43c8.92-.16,15.56-3.97,22.46-6.62Z"/>
        <path class="cls-1" d="M778.11,194.4c-.52,2.01-2.08,3.55-4.14,3.99.27-2.19,1.93-3.8,4.14-3.99Z"/>
        <path class="cls-1" d="M726.14,211.43c-.53.11-.85-.21-.99-.54-.36-.87.25-1.62.97-1.54v2.08Z"/>
      </g>
      <g>
        <rect class="cls-2" x="1167.94" y="104.05" width="20.06" height="76.8" transform="translate(1034.8692 1320.3377) rotate(-89.9685)"/>
        <path class="cls-5" d="M1163.35,167.42l-23.26-.21c-1.52-.76-1.48-5.6.06-6.32l22.97-.02c.74,2.08.85,3.49.23,6.55Z"/>
        <g>
          <path class="cls-1" d="M1216.44,223.4l.05,20.64-9.72.29h-57.86s-9.54-.45-9.54-.45c.51-3.3.29-6.22-.51-9.51v-46.88c.81-3.63,1.01-6.84.51-10.5l10.53-.52h49.88c4.03.76,7.67.69,11.64.52l.04,20.32-47.61.14v25.98s52.58-.03,52.58-.03ZM1162.2,222.15l-.29-22.68c-.04-3.16,3.34-4.11,5.83-4.11l41.73.04.49-12.97c-.44-3.04-3.05-4.61-6.15-4.03l-63.03.11.03,64.12,74.15.04c.39-5.35.09-10.12-.57-14.87-.37-2.68-3.46-2.63-5.5-2.61l-38.2.3c-2.33.02-8.47-.37-8.5-3.34Z"/>
          <path class="cls-11" d="M1162.2,222.15c.04,2.97,6.18,3.36,8.5,3.34l38.2-.3c2.03-.02,5.12-.07,5.5,2.61.66,4.75.96,9.52.57,14.87l-74.15-.04-.03-64.12,63.03-.11c3.1-.58,5.71.99,6.15,4.03l-.49,12.97-41.73-.04c-2.49,0-5.87.96-5.83,4.11l.29,22.68Z"/>
        </g>
      </g>
      <g>
        <path class="cls-7" d="M667.86,243.65c-.38.02-1.57.21-1.85-.19-1.27-1.79-3.42-1.32-5.02-1.93-1.68-.64-1.76-3.36-1.76-5.19l.04-102c3.51-.73,5.86-.52,8.25-1.77.31-.16.8-.04,1.12-.05l-.8,111.12Z"/>
        <path class="cls-3" d="M674.19,132.41c-.02.3-.2.86-.41,1.15l.05,108.79c.3.31.38.73.34,1.34-2.22.11-4.22.89-6.32-.05l.8-111.12,5.54-.11Z"/>
        <path class="cls-1" d="M667.53,132.57c-2.4,1.24-4.75,1.04-8.25,1.77l-.04,102c0,1.83.07,4.54,1.76,5.19s3.75.14,5.02,1.93c-2.32.32-4.87.92-8.02.03l.24-110.82,9.3-.09Z"/>
        <path class="cls-2" d="M674.18,243.7c.04-.6-.05-1.02-.34-1.34l8.36-.11v-108.57s-8.42-.11-8.42-.11c.21-.29.4-.85.41-1.15l9,.22v110.61s-9.02.44-9.02.44Z"/>
        <polygon class="cls-11" points="673.83 242.36 673.78 133.57 682.2 133.68 682.2 242.25 673.83 242.36"/>
      </g>
      <g>
        <path class="cls-2" d="M582.84,208.6c-1.53.03.02,2.81.07,3.48.96,9.99.14,21.97-.5,31.64l-22.77.58c-.91-2.37-1.42-4.41-1.42-6.98l.34-104.37,20.14-.94,25.21-.11c12.88-.06,25.24,5.19,32.78,16.15,7.45,10.83,8.41,24.52,3.9,36.76-5.5,14.93-19.29,22.98-34.73,23.3l-23.03.48ZM607.25,205.99c20.31-.3,34.44-15.3,34.13-36.53-.1-7.02-1.12-13.16-5.08-19.09-1.43-2.13-2.21-4.63-4.64-6.58-6.85-5.5-15.45-9.82-24.73-9.87l-31.6-.18c-3.73-.02-7.06,1.65-11.17.34-1.35-.43-3.37.24-3.97,1-.91,1.17-.06,2.92-.06,4.52l.17,102.73,20.89-.26.18-32.44c.01-2.47,1.63-3.28,3.81-3.31l22.08-.33Z"/>
        <path class="cls-11" d="M607.25,205.99l-22.08.33c-2.17.03-3.79.85-3.81,3.31l-.18,32.44-20.89.26-.17-102.73c0-1.6-.85-3.35.06-4.52.59-.76,2.62-1.43,3.97-1,4.11,1.31,7.44-.37,11.17-.34l31.6.18c9.28.05,17.89,4.37,24.73,9.87,2.43,1.95,3.21,4.44,4.64,6.58,3.96,5.93,4.98,12.07,5.08,19.09.31,21.23-13.82,36.23-34.13,36.53ZM602.72,188.22c10.29.03,15.99-8.55,16.17-17.77.2-10.58-6.8-18.57-17.65-18.43l-18.87.25.08,35.88,20.27.07Z"/>
      </g>
    </g>
  </g>
</svg>