<?xml version="1.0" encoding="UTF-8"?>
<svg id="Layer_2" data-name="Layer 2" xmlns="http://www.w3.org/2000/svg" viewBox="0 0 556.7 259.83">
  <defs>
    <linearGradient id="tealGradient" x1="0%" y1="0%" x2="100%" y2="100%">
      <stop offset="0%" stop-color="#14b8a6" />
      <stop offset="100%" stop-color="#0f766e" />
    </linearGradient>
  </defs>
  <g id="Layer_1-2">
    <path fill="url(#tealGradient)" d="M391.06,209.91c10.68-15.35,16.32-32.15,21.54-49.84l31.36-.07-14.02,41.5c-4.85,14.36-13.4,26.89-24.33,37.47-18.72,18.11-44.56,24.69-69.97,18.75-50.94-11.9-71.26-68.06-65.01-118.87-13.57,5.16-26.33,8.18-40.81,7.78-7.23,23.16-28.96,37.99-52.84,37.38-24.13-.62-44.76-17.1-50.96-41.25l-52.39-.71c-4.8,9.61-12.56,19.05-21.81,22.15-12.74,4.27-24.59,3.09-35.01-4.04-13.2-9.03-19.42-24.99-15.75-40.36,3.57-14.95,16.32-26.7,31.21-28.79,16.38-2.3,32.03,5.43,39.29,20.38,1.51,3.12,2.07,4.95,6.19,5l49.01.66c5.72-23.81,26.84-39.94,50.98-40.25,24.33-.31,46.2,15.52,52.51,40.03,20.34-.02,39.88-7.47,53.98-22.04l25.68-32.27,22.98-29.95C361.63-.39,409.26-9.68,447.88,10.91c19.03,10.15,33.26,26.03,40.73,46.44l19.5.16.57-18.55,48.01,32.82-48.09,33.99-.37-18.08-8.85-.36c-3.88-.16-7.64-.86-11.37.19-5.29,16-17.3,27.71-31.22,32-18,5.55-34.97,1.43-48.28-10.4-11.58-10.29-17.06-25.08-16.03-40.55.94-14.19,8.52-28.01,20.84-36.52-.02-1.19-.46-2.34-.74-2.24l-1.87.62c-32.9-2.25-48.94,11.57-66.9,37-10.69,15.14-21.23,29.52-33.62,43.27-4.65,11.14-7.93,22.08-9.68,33.74-3.77,28.79,5.2,66.35,31.52,80.13,20.66,10.82,45.34,5.02,59.04-14.67ZM462.05,72.18c0-11.45-9.28-20.73-20.74-20.73s-20.74,9.28-20.74,20.73,9.28,20.73,20.74,20.73,20.74-9.28,20.74-20.73ZM206.23,130.29c0-15.42-12.51-27.92-27.94-27.92s-27.94,12.5-27.94,27.92,12.51,27.92,27.94,27.92,27.94-12.5,27.94-27.92ZM54.17,128.63c0-9.05-7.34-16.38-16.39-16.38s-16.39,7.34-16.39,16.38,7.34,16.38,16.39,16.38,16.39-7.34,16.39-16.38Z"/>
  </g>
</svg>
